<?xml version="1.0"?>
<svg xmlns="http://www.w3.org/2000/svg" viewBox="0 0 512 512" width="512px" height="512px"><g id="Planting-2" data-name="Planting"><g id="Outline"><path d="M184,288c37.722,0,73.664-16.529,106.9-29.444,12.587-4.9,30.851.628,36.861,11.159,6.821,11.953,3.9,30-9.422,35.032C281.891,318.534,192,334.331,192,376a8,8,0,0,0,16,0c0-26.67,89.625-46.313,116-56.287,22.655-8.569,29.391-37.371,17.658-57.928-9.987-17.5-36.417-25.979-56.555-18.141-78.121,30.358-87.049,31.608-125.44,24.75C147.014,266.134,135.066,264,128,264c-28.721,0-53.259,6.9-72.933,20.522a8,8,0,1,0,9.106,13.156C81.12,285.948,102.6,280,128,280,139.176,280,172.842,288,184,288Z" fill="#eec344"/><path d="M18.03,348.884a8,8,0,0,0-9.906,5.465C2.733,373.007,0,393.75,0,416v88a8,8,0,0,0,16,0c1.429-72.52-4.142-104.933,7.5-145.209A8,8,0,0,0,18.03,348.884Z" fill="#eec344"/><path d="M504,144a67.722,67.722,0,0,0-65.88,53.258l-13.4,62.53-76.7,69.028L239.8,359.736a8,8,0,0,0,4.4,15.385l110-31.429c3.365-.962-.755,1.39,83.154-73.746,3.438-3.094,1.231-1.029,16.413-69.335A51.7,51.7,0,0,1,494.4,160.916L472.53,292.156,347.966,416.721,173.382,457.01A48.005,48.005,0,0,0,136,504a8,8,0,0,0,16,0,32.077,32.077,0,0,1,24.979-31.4L353.8,431.8c4.24-.978-3.3,4.4,131.858-130.138,3.391-3.391.588,2.292,26.235-148.342A8,8,0,0,0,504,144Z" fill="#eec344"/><path d="M179.271,93.771c22.011,7.714,49.758,11.194,68.729-2.368v76.822a151.753,151.753,0,0,0-118.705,67.79c-5.9,8.893,7.582,17.5,13.33,8.85A136.082,136.082,0,0,1,297.444,190.43a8,8,0,1,0,4.871-15.24A151.547,151.547,0,0,0,264,168.233V91.889c19.109,13.584,47.163,9.97,69.339,2.2,40.891-14.33,76.733-68.142,78.239-70.426a8,8,0,0,0-4.2-12.009c-2.6-.847-64.05-20.571-104.946-6.24-23.036,8.072-37.919,19.341-46.2,31.334C248.132,24.609,233.3,13.2,210.176,5.1,169.66-9.1,108.672,10.81,106.1,11.664a8,8,0,0,0-4.183,11.963C103.4,25.905,138.756,79.574,179.271,93.771Zm128.454-73.26c24.117-8.45,59.411-2.966,84.02,3.346-11.6,15.356-37.175,45.836-63.7,55.131C257.335,103.765,237.317,45.184,307.725,20.511ZM204.885,20.2c70.121,24.574,48.965,82.759-20.323,58.476-26.23-9.192-51.468-39.568-62.887-54.847C140.1,19,178.67,11.01,204.885,20.2Z" fill="#eec344"/><path d="M360.533,220.649a8,8,0,0,0-.9,11.277,136.032,136.032,0,0,1,20.494,32.414,8,8,0,0,0,14.594-6.56,152.01,152.01,0,0,0-22.906-36.226A8,8,0,0,0,360.533,220.649Z" fill="#eec344"/><circle cx="336" cy="200" r="8" fill="#eec344"/><circle cx="32" cy="320" r="8" fill="#eec344"/></g></g></svg>
